<?xml version="1.0" encoding="UTF-8" ?>
<!DOCTYPE svg PUBLIC "-//W3C//DTD SVG 1.1//EN" "http://www.w3.org/Graphics/SVG/1.1/DTD/svg11.dtd">
<svg width="1024pt" height="1024pt" viewBox="0 0 1024 1024" version="1.1" xmlns="http://www.w3.org/2000/svg">
<g id="#e30613ff">
<path fill="#e30613" opacity="1.00" d=" M 469.56 108.60 C 471.25 104.65 474.75 101.33 479.06 100.53 C 485.36 99.47 491.88 100.18 497.95 102.12 C 504.53 103.39 511.34 104.15 517.99 102.83 C 523.09 102.29 529.33 100.34 533.53 104.44 C 536.51 107.41 540.00 112.00 537.77 116.33 C 536.09 120.39 535.42 124.74 535.12 129.10 C 533.66 137.30 532.89 145.61 531.89 153.88 C 531.81 152.19 531.71 150.50 531.59 148.81 C 530.81 151.50 531.85 154.25 531.61 156.98 C 530.84 170.70 532.68 184.44 531.30 198.15 C 529.93 203.68 530.73 209.44 530.41 215.07 C 529.60 224.05 528.16 233.00 528.17 242.04 C 528.01 252.00 528.73 261.98 528.00 271.93 C 526.41 288.98 531.25 305.96 528.80 322.98 C 528.22 327.07 528.65 332.68 533.33 334.15 C 537.48 334.96 541.74 335.41 545.99 335.25 C 561.14 334.10 576.36 334.21 591.52 334.64 C 593.52 332.83 593.42 330.30 591.98 328.19 C 584.44 315.53 571.84 307.01 559.19 300.05 C 550.47 295.89 542.57 290.03 535.91 283.05 C 534.32 281.65 533.79 279.32 534.50 277.35 C 536.19 274.80 539.68 275.16 542.20 276.10 C 549.75 278.98 554.22 286.42 561.50 289.80 C 563.26 290.94 565.43 290.46 567.41 290.43 C 567.47 289.45 567.48 288.48 567.46 287.51 C 564.62 282.94 559.26 281.06 555.44 277.52 C 553.94 276.22 554.65 273.92 555.63 272.52 C 557.68 269.99 561.36 270.08 564.20 271.00 C 569.26 272.81 574.01 275.42 578.56 278.26 C 582.45 280.99 586.16 285.12 591.39 284.54 C 591.65 282.49 591.81 280.24 590.35 278.57 C 584.50 271.30 576.00 266.99 569.04 260.97 C 566.41 258.91 565.03 254.98 567.61 252.30 C 570.22 252.16 572.80 252.64 575.18 253.75 C 578.63 255.50 582.06 257.33 585.06 259.80 C 588.72 262.48 592.09 266.50 597.02 266.47 C 596.76 261.08 591.12 258.64 587.84 255.14 C 585.74 253.33 582.77 249.57 585.92 247.35 C 587.32 247.28 588.72 247.41 590.13 247.51 C 596.78 251.80 603.04 256.70 608.53 262.41 C 610.44 264.16 612.30 266.51 615.06 266.78 C 618.07 266.69 621.08 264.46 624.07 265.91 C 627.28 267.55 629.47 270.54 632.08 272.95 C 646.10 286.85 654.67 304.90 663.78 322.13 C 666.52 326.89 667.50 333.51 673.08 335.91 C 676.61 336.89 680.36 337.09 684.02 337.10 C 699.99 335.87 715.99 335.46 732.01 335.32 C 742.19 334.32 752.46 334.76 762.63 333.65 C 769.77 333.61 776.95 333.20 784.03 334.33 C 794.16 334.72 804.17 336.46 813.98 338.94 C 815.92 339.39 817.89 339.65 819.88 339.97 C 822.25 340.60 824.77 340.92 826.97 342.10 C 829.01 343.25 829.62 345.62 830.30 347.69 C 829.91 348.43 829.53 349.18 829.16 349.93 C 827.67 351.11 826.07 353.38 827.92 355.04 C 832.29 359.23 838.98 357.20 844.18 359.55 C 846.25 361.13 849.02 363.53 847.51 366.44 C 845.15 368.89 841.17 366.29 838.69 368.67 C 828.96 375.97 816.09 372.52 804.92 374.53 C 793.61 375.27 782.28 373.92 770.96 374.15 C 763.94 374.41 756.96 373.61 750.01 372.79 C 746.47 372.39 742.23 372.61 740.16 375.98 C 741.18 377.12 742.13 378.72 743.90 378.69 C 751.59 379.50 759.29 380.90 767.05 380.19 C 775.69 379.30 784.39 379.87 793.06 379.39 C 796.70 379.14 799.95 381.14 801.98 384.07 C 800.82 385.17 799.47 385.72 797.92 385.71 C 790.94 385.88 783.96 385.27 776.98 385.49 C 774.53 385.47 772.20 386.28 770.03 387.33 C 761.35 388.18 752.60 387.60 743.90 387.56 C 738.86 387.68 733.92 386.33 728.88 386.64 C 726.79 387.21 723.19 389.93 726.74 391.31 C 745.48 392.90 764.28 390.38 783.05 390.54 C 786.71 390.53 790.04 392.27 792.75 394.64 C 793.36 397.70 790.80 399.76 787.98 399.97 C 779.32 400.90 770.59 400.08 761.91 400.18 C 743.59 400.36 725.29 401.56 706.97 401.23 C 697.25 401.61 687.40 399.58 677.80 401.76 C 672.54 403.50 670.66 409.19 668.72 413.81 C 667.25 418.27 665.84 422.74 664.29 427.17 C 662.31 431.82 660.55 436.57 658.21 441.05 C 651.63 454.22 640.22 463.83 631.12 475.12 C 627.66 479.95 624.85 485.32 620.52 489.48 C 615.78 494.24 609.55 497.04 604.43 501.32 C 591.52 511.14 578.99 522.65 562.97 527.00 C 553.40 529.43 543.50 529.99 533.72 530.99 C 529.76 531.29 525.33 532.84 523.60 536.73 C 520.79 545.18 521.60 554.21 521.43 562.97 C 521.31 579.68 521.87 596.40 521.22 613.10 C 520.19 619.41 520.80 625.88 520.35 632.26 C 518.82 643.44 520.11 654.82 518.82 666.03 C 518.45 674.23 518.47 682.45 518.18 690.66 C 517.30 702.75 517.69 714.90 516.82 726.99 C 516.52 739.32 516.39 751.65 516.29 763.99 C 515.33 784.29 515.71 804.64 515.47 824.97 C 515.37 836.67 515.34 848.37 515.36 860.07 C 515.37 862.99 515.38 865.94 514.69 868.81 C 514.51 871.91 514.50 875.03 514.76 878.14 C 516.11 883.69 514.74 889.51 515.88 895.13 C 517.03 900.29 514.53 906.55 509.24 908.25 C 507.01 909.11 504.74 908.17 502.73 907.23 C 501.29 902.23 501.79 896.85 499.72 892.01 C 496.40 883.68 497.94 874.65 497.37 865.95 C 497.11 859.74 491.64 855.27 491.37 849.07 C 491.00 842.71 491.31 836.34 491.26 829.98 C 491.29 822.11 492.69 813.99 490.29 806.33 C 489.47 806.45 488.66 806.57 487.85 806.70 C 483.54 816.92 486.35 828.35 483.86 838.92 C 482.66 846.94 483.46 855.04 483.46 863.10 C 483.65 866.03 481.24 868.11 479.05 869.63 C 477.50 868.38 475.59 867.39 474.67 865.55 C 472.78 861.99 473.46 857.83 473.45 853.98 C 473.88 841.33 473.14 828.64 474.49 816.04 C 475.66 803.04 477.08 790.03 476.25 776.96 C 475.57 775.33 474.86 773.70 474.13 772.10 C 472.70 772.71 471.03 773.43 470.69 775.12 C 469.14 780.98 470.14 787.08 469.72 793.06 C 469.69 800.78 467.75 808.33 467.58 816.05 C 467.55 819.22 465.82 822.01 464.02 824.50 C 463.47 824.15 462.38 823.46 461.83 823.11 C 461.65 822.57 461.30 821.48 461.13 820.94 C 459.88 816.40 459.50 811.68 459.41 807.00 C 459.05 792.66 459.92 778.33 459.72 763.99 C 459.80 758.36 459.31 752.69 460.09 747.09 C 460.99 734.09 460.66 721.00 459.86 708.02 C 460.08 692.32 458.94 676.62 459.40 660.92 C 459.47 652.85 462.04 645.05 461.81 636.97 C 461.90 621.97 461.49 606.96 461.60 591.96 C 461.82 577.95 460.44 564.01 460.52 550.00 C 460.60 546.23 459.31 542.01 455.90 539.99 C 453.09 538.50 449.88 538.08 446.84 537.30 C 438.94 534.79 431.93 530.41 424.90 526.16 C 411.64 522.61 400.53 514.19 389.56 506.31 C 376.44 496.31 369.53 480.82 360.05 467.74 C 355.26 461.45 351.80 454.31 349.12 446.89 C 347.28 441.95 346.01 436.81 344.26 431.84 C 341.03 425.68 338.24 418.63 332.24 414.62 C 330.13 412.98 327.37 413.42 324.91 413.63 C 318.51 416.17 311.65 417.32 304.95 418.80 C 293.05 421.32 280.81 421.83 268.94 424.58 C 260.18 426.29 251.90 430.07 242.94 430.85 C 232.37 432.12 221.66 433.34 211.00 432.58 C 204.58 432.17 199.82 427.48 194.61 424.29 C 190.23 421.14 185.06 418.31 182.68 413.22 C 181.73 410.97 183.02 408.74 184.34 406.98 C 184.76 403.26 184.52 399.53 184.30 395.82 C 184.13 396.50 183.97 397.18 183.81 397.87 C 183.61 395.18 182.71 392.63 182.20 390.00 C 182.31 387.71 183.73 385.80 184.87 383.92 C 187.99 378.83 181.69 376.21 177.78 375.15 C 173.00 367.94 178.46 356.72 186.93 355.56 C 191.65 355.12 196.29 356.46 201.01 356.37 C 207.44 356.62 213.81 355.59 220.23 355.31 C 226.16 354.24 232.21 353.83 238.18 352.89 C 248.04 351.35 258.05 352.98 267.94 351.91 C 270.72 351.65 273.50 351.48 276.29 351.33 L 276.91 350.85 C 279.35 350.72 281.78 350.56 284.21 350.32 C 287.47 349.40 290.88 349.53 294.23 349.27 C 299.75 348.02 305.45 348.64 311.05 348.10 C 318.74 347.20 326.73 348.62 334.17 345.98 C 337.29 345.18 338.09 341.71 339.30 339.19 C 340.74 334.72 342.14 330.25 343.69 325.83 C 347.43 315.76 353.39 306.78 358.66 297.48 C 360.53 294.21 362.74 291.11 365.42 288.44 C 370.73 283.07 376.08 277.73 381.68 272.66 C 391.37 264.25 400.85 255.32 412.19 249.13 C 416.36 246.57 420.70 244.32 425.11 242.20 C 429.57 239.13 435.13 239.85 440.00 238.02 C 444.21 235.78 448.65 233.97 452.86 231.72 C 456.33 230.09 460.40 229.80 463.54 227.54 C 468.12 223.08 467.90 215.93 466.78 210.12 C 465.99 191.49 467.74 172.75 465.51 154.19 C 465.41 148.76 464.52 143.40 464.40 137.97 C 464.20 132.30 463.07 126.55 464.45 120.93 C 465.28 116.50 467.71 112.64 469.56 108.60 M 464.90 284.55 C 460.92 286.44 457.43 289.11 453.80 291.56 C 449.55 293.93 445.22 296.26 441.57 299.53 C 430.22 310.21 419.88 322.38 413.82 336.89 C 413.31 338.03 412.81 339.17 412.31 340.31 C 415.11 342.50 418.77 341.42 422.02 341.44 C 431.30 340.64 440.63 340.12 449.95 340.22 C 454.08 340.25 458.35 341.58 462.41 340.34 C 465.28 338.58 466.59 335.21 467.34 332.08 C 468.45 324.11 467.04 316.06 467.61 308.07 C 468.77 300.31 468.98 292.39 468.44 284.57 C 467.25 284.55 466.07 284.55 464.90 284.55 M 545.07 407.31 C 539.93 407.79 534.49 406.60 529.63 408.75 C 528.19 413.70 528.96 418.91 528.48 423.98 C 527.47 437.78 524.78 451.48 525.50 465.37 C 526.24 466.11 526.98 466.85 527.73 467.60 C 532.23 467.82 536.75 467.72 541.24 467.28 C 550.21 465.77 558.18 460.90 564.49 454.48 C 571.89 446.86 580.44 440.37 587.07 432.02 C 592.27 426.00 595.54 418.69 599.58 411.91 C 598.84 406.88 593.07 406.12 588.97 405.68 C 574.32 404.57 559.67 406.18 545.07 407.31 M 410.55 411.63 C 410.14 419.33 416.22 425.22 418.75 432.10 C 423.16 443.86 433.93 450.98 442.39 459.59 C 447.46 465.18 455.50 464.73 462.25 466.59 C 464.45 462.02 463.27 456.79 463.12 451.94 C 462.24 440.67 461.86 429.28 463.17 418.03 C 463.29 415.36 462.97 412.14 460.40 410.67 C 453.60 410.49 446.75 409.56 440.01 410.99 C 432.71 412.58 425.37 409.78 418.06 410.88 C 415.56 411.19 413.05 411.34 410.55 411.63 M 523.56 505.82 C 519.84 508.63 522.22 516.30 527.10 515.30 C 531.00 513.53 534.91 511.79 539.14 510.94 C 542.47 508.94 545.83 506.95 549.73 506.24 C 549.73 504.67 549.49 502.84 547.66 502.47 C 542.44 501.65 537.22 499.53 531.89 500.55 C 529.00 502.10 526.43 504.21 523.56 505.82 Z" />
<path fill="#e30613" opacity="1.00" d=" M 805.74 380.65 C 810.51 379.88 816.38 377.87 820.35 381.79 C 821.93 383.14 821.51 385.06 820.46 386.57 C 815.00 386.61 808.64 387.36 804.38 383.18 C 804.72 382.55 805.40 381.28 805.74 380.65 Z" />
<path fill="#e30613" opacity="1.00" d=" M 504.22 931.09 C 506.50 926.33 504.02 920.34 507.83 916.26 C 511.72 916.38 512.74 920.95 514.33 923.76 C 514.46 925.20 514.61 926.66 514.78 928.13 C 515.54 930.98 515.70 934.05 514.85 936.92 C 514.64 937.95 514.45 939.00 514.27 940.07 C 512.86 942.39 511.63 945.14 509.02 946.37 C 506.18 947.42 504.01 944.53 502.64 942.46 C 501.31 938.65 502.83 934.64 504.22 931.09 Z" />
</g>
</svg>
